<?xml version="1.0" standalone="no"?><!DOCTYPE svg PUBLIC "-//W3C//DTD SVG 1.1//EN" "http://www.w3.org/Graphics/SVG/1.1/DTD/svg11.dtd"><svg t="1705040001440" class="icon" viewBox="0 0 1024 1024" version="1.1" xmlns="http://www.w3.org/2000/svg" p-id="16021" xmlns:xlink="http://www.w3.org/1999/xlink" width="200" height="200"><path d="M867.908608 809.172992l-101.64224 0 0 104.712192-101.641216 0L664.625152 809.172992l-101.64224 0L562.982912 704.461824l101.64224 0L664.625152 599.750656l101.641216 0 0 104.712192 101.64224 0L867.908608 809.172992zM461.341696 809.172992c0 17.92 2.332672 35.227648 5.111808 52.356096L156.91264 861.529088c-0.34816-7.10656-0.49664-14.28992-0.49664-21.423104 0-215.482368 136.531968-390.137856 304.925696-390.137856 66.603008 0 127.747072 28.069888 177.872896 74.418176C534.44608 574.109696 461.341696 682.553344 461.341696 809.172992zM464.169984 409.832448c-85.015552 0-153.90208-62.990336-153.90208-140.655616 0-77.638656 68.886528-140.628992 153.90208-140.628992s153.951232 62.990336 153.951232 140.628992C618.121216 346.842112 549.185536 409.832448 464.169984 409.832448z" p-id="16022" fill="#515151"></path></svg>